<svg width="148" height="29" viewBox="0 0 148 29" fill="none" xmlns="http://www.w3.org/2000/svg">
<path d="M9.06944 11.6567C9.06944 11.6567 7.84466 11.5407 7.84466 12.5785V17.1878H15.9337V18.5711C15.9337 18.5711 15.9577 19.2622 15.1983 19.2622H7.84433V25.2548H16.6687C16.6687 25.2548 22.0119 24.4709 22.0612 19.2622V11.6567H9.06944ZM21.8155 4.28068H5.88316C0.122018 5.57114 0 10.0657 0 10.0657V25.2555H6.12884V11.4262C6.12884 10.2505 7.35363 10.0438 7.35363 10.0438H21.8165V4.28068H21.8155ZM42.8493 20.9085C42.429 21.1752 42.1182 21.3709 41.8985 21.4957C41.1128 21.9582 40.3635 22.3146 39.6693 22.5995C38.6638 22.991 37.7676 23.1867 36.9642 23.1867C34.2044 23.1867 31.9193 22.3856 30.0726 20.7656C28.2259 19.1455 27.3139 17.1171 27.3139 14.661C27.3139 12.2939 28.1364 10.2464 29.7993 8.50134C31.4622 6.75748 33.473 5.90259 35.8492 5.90259C36.8369 5.90259 37.8956 6.06237 38.9924 6.40195C40.4181 6.82846 41.5693 7.46978 42.4832 8.30559L40.8927 9.97847C40.2172 9.35622 39.34 8.89282 38.3159 8.60827C37.5489 8.3944 36.7086 8.28871 35.7755 8.28871C34.1127 8.28871 32.7047 8.92784 31.5901 10.1924C30.4755 11.4737 29.9092 12.9868 29.9092 14.7667C29.9092 16.5296 30.5479 17.9708 31.8276 19.1283C33.1073 20.285 34.7333 20.8722 36.7073 20.8722C37.5298 20.8722 38.3715 20.6224 39.2295 20.143C39.9429 19.6268 40.3083 19.3769 40.3264 19.3591V15.7107H34.9895L35.7565 13.4324H42.8486V20.9085H42.8493ZM58.9698 16.458C58.9698 18.22 58.312 19.7509 56.9958 21.0323C55.6796 22.3137 54.0532 22.9728 52.1161 22.9728C50.3249 22.9728 48.7532 22.3315 47.4001 21.0683C46.0471 19.8047 45.3893 18.2738 45.3893 16.4758C45.3893 14.696 46.03 13.1648 47.3087 11.8474C48.5871 10.5301 50.1598 9.88967 52.0056 9.88967C54.0529 9.88967 55.7161 10.5129 57.0135 11.7764C58.3123 13.005 58.9698 14.5712 58.9698 16.458ZM56.4653 16.4939C56.4653 15.3014 56.045 14.2867 55.2047 13.4678C54.3643 12.6307 53.3221 12.2214 52.0792 12.2214C50.91 12.2214 49.9224 12.6488 49.0998 13.5037C48.2773 14.3577 47.875 15.3364 47.875 16.4402C47.875 17.5977 48.2954 18.5764 49.1179 19.3957C49.9405 20.2146 50.9646 20.6411 52.2065 20.6411C53.3589 20.6411 54.3453 20.2315 55.1869 19.4126C56.0453 18.5936 56.4666 17.6146 56.4666 16.4943L56.4653 16.4939ZM74.8709 16.458C74.8709 18.22 74.2131 19.7509 72.8969 21.0323C71.5807 22.3137 69.9543 22.9728 68.0172 22.9728C66.2261 22.9728 64.6543 22.3315 63.3012 21.0683C61.9492 19.8047 61.2904 18.2738 61.2904 16.4758C61.2904 14.696 61.9311 13.1648 63.2098 11.8474C64.4895 10.5301 66.061 9.88967 67.9067 9.88967C69.954 9.88967 71.6172 10.5129 72.9147 11.7764C74.2131 13.005 74.8709 14.5712 74.8709 16.458ZM72.3664 16.4939C72.3664 15.3014 71.9461 14.2867 71.1058 13.4678C70.2655 12.6307 69.2232 12.2214 67.9803 12.2214C66.8111 12.2214 65.8235 12.6488 65.0009 13.5037C64.1784 14.3577 63.7762 15.3364 63.7762 16.4402C63.7762 17.5977 64.1965 18.5764 65.02 19.3957C65.8416 20.2146 66.8657 20.6411 68.1086 20.6411C69.2601 20.6411 70.2464 20.2315 71.088 19.4126C71.9464 18.5936 72.3677 17.6146 72.3677 16.4943L72.3664 16.4939ZM89.5847 22.6164L87.2819 22.955V20.8366L86.7882 21.37C86.3534 21.7574 85.8604 22.0814 85.326 22.3318C84.5412 22.6761 83.6868 22.8521 82.8224 22.8481C81.0313 22.8481 79.4954 22.2249 78.2525 20.9604C77.0097 19.6959 76.3887 18.2018 76.3887 16.458C76.3887 14.66 77.0097 13.1119 78.2344 11.8296C79.4592 10.5473 80.9573 9.90687 82.7484 9.90687C83.7726 9.90687 84.6678 10.0667 85.4167 10.3872C85.9472 10.6189 86.4044 10.9215 86.7875 11.2961C86.9158 11.4559 87.0437 11.6338 87.172 11.7936V6.24029L89.6199 5.90165L89.5847 22.6164ZM87.4279 16.6178C87.4279 15.3723 86.9888 14.3217 86.0936 13.4674C85.1987 12.5944 84.1919 12.1679 83.0418 12.1679C81.7621 12.1679 80.7389 12.5775 79.9532 13.3965C79.2211 14.1785 78.8376 15.1403 78.8376 16.2619C78.8376 17.5255 79.2211 18.5752 79.9891 19.3941C80.756 20.2131 81.7256 20.6227 82.9139 20.6227C84.0831 20.6227 85.1072 20.249 86.0212 19.4842C86.953 18.7003 87.4289 17.7394 87.4289 16.6178H87.4279ZM102.506 8.55543H95.6527V12.9872H100.971V15.2654H95.6527V22.5995L92.9845 22.9731V6.25843H101.976L102.506 8.55543ZM108.008 7.25497L106.363 9.23052L104.791 7.25497L106.454 5.29723L108.008 7.25497ZM107.514 22.6164L105.066 22.9369V10.566L107.514 10.2105V22.6173V22.6164ZM118.572 10.0857L117.421 12.6126C117.27 12.5907 117.117 12.5791 116.964 12.5775C116.726 12.5775 116.489 12.5954 116.25 12.6304C116.012 12.6654 115.757 12.7551 115.483 12.8802C114.972 13.0941 114.533 13.5562 114.149 14.2504C113.725 15.0384 113.505 15.9111 113.508 16.7963V22.5992L111.061 22.9728V10.566L113.327 10.1745V12.7555C113.619 12.3099 113.93 11.8655 114.222 11.4031C114.642 10.9397 115.136 10.602 115.684 10.4053C115.976 10.2993 116.507 10.2096 117.31 10.1386C118.079 10.0857 118.518 10.0498 118.572 10.0857ZM136.812 22.6164L134.363 22.955V14.4643C134.363 13.6804 134.18 13.111 133.815 12.7555C133.449 12.399 132.901 12.2211 132.187 12.2211C131.329 12.2211 130.671 12.5597 130.232 13.2357C129.939 13.6982 129.776 14.1966 129.776 14.6951V22.5985L127.327 23.026V14.5174C127.327 13.7704 127.144 13.2001 126.796 12.8095C126.43 12.4171 125.956 12.2214 125.334 12.2214H125.097C124.237 12.2214 123.615 12.56 123.232 13.2542C122.94 13.7704 122.794 14.4286 122.794 15.2298V22.5989L120.253 23.0263V10.5663L122.537 10.1927V11.7767C122.793 11.4021 123.049 11.0995 123.287 10.8868C123.945 10.2996 124.713 10.0138 125.571 10.0138C126.54 10.0138 127.252 10.1567 127.746 10.4594C128.166 10.7092 128.568 11.2064 128.97 11.9187C129.811 10.6551 130.999 10.0141 132.572 10.0141C134.07 10.0141 135.186 10.4597 135.916 11.3674C136.52 12.1144 136.812 13.2182 136.812 14.6603V22.6164ZM148 18.861C148 19.9995 147.58 20.9435 146.739 21.6736C145.899 22.4206 144.838 22.7774 143.558 22.7774C142.59 22.7774 141.73 22.5635 140.945 22.1361C140.159 21.7096 139.575 21.228 139.19 20.6589L140.909 19.1996C141.036 19.3776 141.147 19.5192 141.256 19.6261C141.896 20.2493 142.663 20.5701 143.559 20.5701C144.181 20.5701 144.674 20.4104 145.021 20.1077C145.387 19.805 145.551 19.3776 145.551 18.8254C145.551 18.2031 145.131 17.7757 144.291 17.5439C142.627 17.0637 141.731 16.7969 141.603 16.7428C140.835 16.3692 140.287 15.9777 139.939 15.5324C139.556 15.0162 139.355 14.3398 139.355 13.4681C139.355 12.3993 139.775 11.5103 140.598 10.7983C141.421 10.0863 142.407 9.74771 143.54 9.74771C144.4 9.74771 145.204 9.92563 145.935 10.2999C146.666 10.6736 147.196 11.0651 147.507 11.5285L146.044 13.0406C145.825 12.8317 145.587 12.641 145.332 12.4712C144.747 12.0797 144.181 11.884 143.651 11.884C143.138 11.884 142.718 11.9909 142.389 12.2036C142.005 12.4712 141.804 12.8627 141.804 13.3793C141.804 13.8777 141.987 14.2514 142.372 14.4831C142.701 14.6788 143.395 14.8927 144.492 15.1231C145.588 15.373 146.429 15.8004 147.032 16.4055C147.708 17.0452 148 17.8463 148 18.861Z" fill="#3A7AF3"/>
</svg>
