<svg width="149" height="29" viewBox="0 0 149 29" fill="none" xmlns="http://www.w3.org/2000/svg">
<g clip-path="url(#clip0_10806_9881)">
<g clip-path="url(#clip1_10806_9881)">
<path d="M19.9355 3.81891H23.406V25.7172H19.9355V3.81891ZM35.5525 18.7317C35.5525 22.083 32.7614 22.3502 31.9311 22.3502C29.8567 22.3502 29.4792 20.3898 29.4792 19.2073V10.8264H26.0088V19.1898C26.0088 21.2657 26.6543 22.9791 27.7857 24.1213C28.7852 25.1312 30.2827 25.6831 31.9051 25.6831C33.0555 25.6831 34.6849 25.3213 35.5525 24.5216V25.7172H39.0229V10.8264H35.5525V18.7317ZM45.9638 5.57078H42.4934V10.8264H39.8906V14.3301H42.4934V25.7172H45.9638V14.3301H48.5666V10.8264H45.9638V5.57078ZM74.7684 12.1245C73.7689 11.1154 72.5977 10.5636 70.9752 10.5636C69.8248 10.5636 68.5216 10.9254 67.654 11.7242V3.81891H64.1836V25.7172H67.654V17.5141C67.654 14.1628 70.0122 13.8965 70.8425 13.8965C72.917 13.8965 72.8597 15.8577 72.8597 17.0385V25.7172H76.3301V17.0569C76.3301 14.9809 75.9007 13.2676 74.7684 12.1245Z" fill="white"/>
<path d="M15.0754 20.2169C13.7558 21.5878 11.9633 22.3306 10.0771 22.3306C6.21105 22.3306 3.39999 19.2648 3.39999 15.0568C3.39999 10.8295 6.21105 7.76378 10.0771 7.76378C11.9451 7.76378 13.7176 8.50569 15.0572 9.85814L15.5847 10.3916L17.9047 8.04933L17.3954 7.51589C15.4719 5.51613 12.8691 4.43173 10.0771 4.43173C4.38126 4.43173 0.0996094 9.00147 0.0996094 15.0752C0.0996094 21.1305 4.40035 25.6819 10.0771 25.6819C12.8882 25.6819 15.491 24.5782 17.4145 22.5784L17.9238 22.045L15.6229 19.6651L15.0754 20.2169Z" fill="white"/>
</g>
<path d="M56.6455 22.3315C57.7404 22.3315 58.7381 21.9514 59.4938 21.2655L60.0213 20.7908L62.3977 23.1505L61.832 23.684C60.4725 24.9593 58.6253 25.6636 56.6446 25.6636C52.382 25.6636 49.1562 22.3902 49.1562 18.0666C49.1562 13.7246 52.3065 10.5642 56.6446 10.5642C58.5889 10.5642 60.4169 11.2685 61.7938 12.5237L62.3795 13.0571L60.0395 15.4187L59.5129 14.9614C58.7381 14.2756 57.7213 13.9138 56.6455 13.9138C54.1754 13.9138 52.4592 15.628 52.4592 18.085C52.4592 20.542 54.2318 22.3315 56.6455 22.3315Z" fill="white"/>
<path d="M56.5306 15.5919C57.1961 15.5919 57.8343 15.8588 58.3048 16.3338C58.7754 16.8089 59.0397 17.4532 59.0397 18.1251C59.0397 18.7969 58.7754 19.4412 58.3048 19.9163C57.8343 20.3914 57.1961 20.6583 56.5306 20.6583C55.8651 20.6583 55.2269 20.3914 54.7564 19.9163C54.2858 19.4412 54.0215 18.7969 54.0215 18.1251C54.0215 17.4532 54.2858 16.8089 54.7564 16.3338C55.2269 15.8588 55.8651 15.5919 56.5306 15.5919Z" fill="#FE3934"/>
</g>
<defs>
<clipPath id="clip0_10806_9881">
<rect width="148" height="28" fill="white" transform="translate(0.0810547 0.768066)"/>
</clipPath>
<clipPath id="clip1_10806_9881">
<rect width="76.2666" height="21.8983" fill="white" transform="translate(0.0810547 3.8189)"/>
</clipPath>
</defs>
</svg>
