<svg width="118" height="69" viewBox="0 0 118 69" fill="none" xmlns="http://www.w3.org/2000/svg">
<path d="M85.1396 40.65C83.5782 40.65 82.1709 40.0524 80.9758 38.8957C79.7613 37.7391 79.1637 36.2548 79.1637 34.4427C79.1637 32.6307 79.7613 31.2813 80.9179 30.1054C82.0745 28.9295 83.5203 28.3319 85.2167 28.3319C86.9131 28.3319 88.0504 28.8138 89.13 29.7584C89.5155 29.0259 89.9974 28.3126 90.5757 27.6765C89.0529 26.4427 87.2601 25.8259 85.2553 25.8259C83.2505 25.8259 80.783 26.6741 79.0673 28.3705C77.3517 30.0476 76.4842 32.0909 76.4842 34.4235C76.4842 36.756 77.448 39.262 79.3179 40.9198C81.0336 42.4042 82.9806 43.156 85.1203 43.156C87.2601 43.156 88.995 42.5391 90.5372 41.3439C89.9589 40.6885 89.477 39.9945 89.0914 39.2235C87.9926 40.168 86.6625 40.65 85.1396 40.65ZM33.1493 43.2716C30.971 43.2716 29.0047 42.5198 27.289 41.0162C25.3806 39.3584 24.4168 37.1415 24.4168 34.462C24.4168 31.7825 25.2842 30.0476 27.0384 28.3319C28.7541 26.6162 30.8553 25.768 33.2842 25.768C35.7131 25.768 37.7565 26.6355 39.4722 28.3512C41.1878 30.0668 42.0553 32.1488 42.0553 34.5584C42.0553 36.968 41.1878 39.05 39.4529 40.7271C37.718 42.4235 35.5975 43.2716 33.1493 43.2716ZM33.2264 28.3126C31.5107 28.3126 30.0649 28.9102 28.889 30.1054C27.7131 31.2813 27.1156 32.7464 27.1156 34.4813C27.1156 36.2162 27.7324 37.797 28.9469 38.9729C30.1613 40.1488 31.5686 40.7271 33.1686 40.7271C34.7686 40.7271 36.3686 40.1295 37.5445 38.9343C38.7204 37.7391 39.318 36.2548 39.318 34.5198C39.318 32.7849 38.7204 31.2813 37.5637 30.1054C36.4071 28.9102 34.9421 28.3126 33.2264 28.3126ZM52.5806 43.2331H43.5975V25.7295H46.3926V40.5921H52.5999V43.2331H52.5806ZM56.8794 43.2331H54.0842V25.7295H56.8794V43.2331ZM65.9782 43.2331H63.183V28.3705H58.383V25.7295H70.8938V28.3705H65.9782V43.2331ZM75.1541 43.2331H72.3589V25.7295H75.1541V43.2331ZM98.2866 43.2716C96.1275 43.2716 94.142 42.5198 92.4263 41.0162C90.5179 39.3584 89.5541 37.1415 89.5541 34.462C89.5541 31.7825 90.4215 30.0476 92.1757 28.3319C93.8914 26.6162 95.9926 25.768 98.4215 25.768C100.85 25.768 102.894 26.6355 104.609 28.3512C106.325 30.0668 107.193 32.1488 107.193 34.5584C107.193 36.968 106.325 39.05 104.59 40.7271C102.855 42.4235 100.735 43.2716 98.2866 43.2716ZM98.383 28.3126C96.6866 28.3126 95.2215 28.9102 94.0456 30.1054C92.8697 31.2813 92.2721 32.7464 92.2721 34.4813C92.2721 36.2162 92.889 37.797 94.1035 38.9729C95.3179 40.1488 96.7251 40.7271 98.3251 40.7271C99.9251 40.7271 101.525 40.1295 102.701 38.9343C103.877 37.7198 104.475 36.2355 104.475 34.5198C104.475 32.8042 103.877 31.2813 102.72 30.1054C101.564 28.9102 100.099 28.3126 98.383 28.3126ZM13.6023 43.2331H10.8071V25.7488H17.6505C20.8698 25.7488 23.4915 28.3705 23.4915 31.5897C23.4915 34.809 20.8698 37.4307 17.6505 37.4307H13.6023V43.2138V43.2331ZM13.6023 34.8861H17.6505C19.4625 34.8861 20.9469 33.4211 20.9469 31.5897C20.9469 29.7584 19.4818 28.2933 17.6505 28.2933H13.6023V34.8668V34.8861Z" fill="#0B0C0D"/>
</svg>
