<svg width="118" height="69" viewBox="0 0 118 69" fill="none" xmlns="http://www.w3.org/2000/svg">
<g clip-path="url(#clip0_11662_11064)">
<path d="M69.8202 36.5684C69.8202 33.8988 68.6388 31.5518 64.6415 31.5518C62.5936 31.5518 60.9658 32.1085 60.0732 32.6019L60.723 34.7465C61.5369 34.253 62.8299 33.8418 64.0508 33.8418C66.0789 33.8418 66.4071 34.9489 66.4071 35.6574V35.8282C61.9898 35.8219 59.2002 37.2959 59.2002 40.3008C59.2002 42.1354 60.6245 43.8561 63.0925 43.8561C64.6152 43.8561 65.882 43.2741 66.6434 42.3378H66.7222C66.7222 42.3378 67.2276 44.3685 70.004 43.5967C69.8596 42.749 69.8137 41.8444 69.8137 40.7626M66.5187 39.3962C66.5187 39.6113 66.499 39.839 66.4399 40.0351C66.184 40.8512 65.3044 41.5407 64.2083 41.5407C63.2959 41.5407 62.5674 41.041 62.5674 39.9845C62.5674 38.365 64.4183 37.9222 66.5187 37.9285V39.3962Z" fill="#0B0C0D"/>
<path d="M1 27.9209C1 27.9209 3.88802 39.3206 4.34748 41.1679C4.8857 43.3251 5.85713 44.1222 8.64669 43.5844L10.4451 36.5181C10.9046 34.7595 11.2065 33.5132 11.5019 31.7229H11.5544C11.7579 33.5259 12.0532 34.7658 12.4274 36.5245C12.4274 36.5245 13.1625 39.7318 13.5366 41.4209C13.9108 43.1037 14.961 44.1664 17.698 43.5908L21.9907 27.9209H18.525L17.0613 34.6962C16.6675 36.67 16.3131 38.2072 16.0308 40.0165H15.9849C15.7355 38.2325 15.4139 36.7522 15.0135 34.8291L13.4841 27.9272H9.86754L8.23318 34.6582C7.76716 36.7016 7.34052 38.3527 7.06484 40.0987H7.01234C6.7301 38.4603 6.35597 36.3853 5.94902 34.4052C5.94902 34.4052 4.97759 29.591 4.63628 27.9336" fill="#0B0C0D"/>
<path d="M31.8495 36.5684C31.8495 33.8988 30.6681 31.5518 26.6708 31.5518C24.6164 31.5518 22.9886 32.1085 22.1025 32.6019L22.7523 34.7465C23.5662 34.253 24.8592 33.8418 26.0801 33.8418C28.1082 33.8418 28.4364 34.9489 28.4364 35.6574V35.8282C24.0191 35.8219 21.2295 37.2959 21.2295 40.3008C21.2295 42.1354 22.6538 43.8561 25.1218 43.8561C26.6445 43.8561 27.9113 43.2741 28.6727 42.3378H28.7449C28.7449 42.3378 29.2503 44.3685 32.0333 43.5967C31.8889 42.749 31.8364 41.8444 31.8364 40.7626M28.5414 39.3962C28.5414 39.6113 28.5217 39.839 28.4627 40.0351C28.2067 40.8512 27.3337 41.5407 26.2376 41.5407C25.3252 41.5407 24.5967 41.041 24.5967 39.9845C24.5967 38.365 26.4411 37.9222 28.548 37.9285V39.3962H28.5414Z" fill="#0B0C0D"/>
<path d="M37.3562 40.2632V27.9209H34.0547V43.5908H37.3562" fill="#0B0C0D"/>
<path d="M80.5454 27.9204V39.4783C80.5454 41.0724 80.8539 42.1859 81.5234 42.8691C82.101 43.4637 83.0593 43.8496 84.2079 43.8496C85.1859 43.8496 86.1442 43.6725 86.5971 43.508L86.5512 41.0218C86.2164 41.1041 85.8292 41.1673 85.2975 41.1673C84.1751 41.1673 83.7944 40.4715 83.7944 39.0418V34.6198H86.6693V31.6212H83.7944V27.9141" fill="#0B0C0D"/>
<path d="M72.0254 31.8238V43.5968H75.4319V37.568C75.4319 37.2453 75.4516 36.9607 75.5041 36.7013C75.7601 35.4361 76.7578 34.6326 78.1953 34.6326C78.5891 34.6326 78.8713 34.6706 79.1732 34.7149V31.634C78.9173 31.5834 78.7466 31.5645 78.425 31.5645C77.1516 31.5645 75.7076 32.3552 75.1038 34.0506H75.0119V31.8302" fill="#0B0C0D"/>
<path d="M39.6665 31.8238V43.5967H42.9877V36.6949C42.9877 36.3723 43.0271 36.0307 43.1453 35.7333C43.4209 35.0375 44.0904 34.2214 45.1603 34.2214C46.4993 34.2214 47.1228 35.3095 47.1228 36.891V43.5967H50.4375V36.6127C50.4375 36.3027 50.4835 35.9295 50.5753 35.6574C50.8445 34.8667 51.573 34.2214 52.5641 34.2214C53.9228 34.2214 54.5726 35.2968 54.5726 37.1441V43.5904H57.8873V36.657C57.8873 33.0004 55.9576 31.5518 53.785 31.5518C52.8201 31.5518 52.0587 31.7858 51.3761 32.1907C50.7985 32.5323 50.28 33.0194 49.8271 33.6584H49.7811C49.256 32.3868 48.0221 31.5518 46.414 31.5518C44.3464 31.5518 43.4209 32.5576 42.8565 33.418H42.8039V31.8175" fill="#0B0C0D"/>
<path d="M104.516 30.0907C105.172 30.0907 105.711 29.7617 105.783 29.3379L106.433 22.2716C106.433 21.5757 105.586 21 104.516 21C103.446 21 102.606 21.5757 102.606 22.2716L103.256 29.3379C103.328 29.7617 103.866 30.0907 104.523 30.0907" fill="#0B0C0D"/>
<path d="M100.558 32.2984C100.886 31.7543 100.86 31.1344 100.512 30.8623L94.4864 26.7883C93.8629 26.4404 92.9243 26.8579 92.386 27.7499C91.8544 28.6419 91.9463 29.6351 92.5698 29.983L99.2385 32.9753C99.6586 33.1271 100.223 32.8361 100.551 32.292" fill="#0B0C0D"/>
<path d="M108.48 32.292C108.809 32.8361 109.373 33.1271 109.793 32.9753L116.462 29.983C117.092 29.6351 117.177 28.6419 116.646 27.7499C116.114 26.8579 115.175 26.4404 114.545 26.7883L108.52 30.8623C108.172 31.1344 108.152 31.7543 108.474 32.2984" fill="#0B0C0D"/>
<path d="M104.516 38.9092C105.172 38.9092 105.711 39.2381 105.783 39.662L106.433 46.7283C106.433 47.4242 105.586 47.9999 104.516 47.9999C103.446 47.9999 102.606 47.4242 102.606 46.7283L103.256 39.662C103.328 39.2381 103.866 38.9092 104.523 38.9092" fill="#0B0C0D"/>
<path d="M108.48 36.7082C108.809 36.1578 109.373 35.8731 109.793 36.0249L116.462 39.0172C117.092 39.3651 117.177 40.3583 116.646 41.2503C116.114 42.136 115.175 42.5598 114.545 42.2119L108.52 38.1379C108.172 37.8658 108.152 37.2459 108.474 36.7018" fill="#0B0C0D"/>
<path d="M100.558 36.7076C100.886 37.2517 100.86 37.8717 100.512 38.1437L94.4864 42.2114C93.8629 42.5593 92.9243 42.1418 92.386 41.2498C91.8544 40.3578 91.9463 39.3646 92.5698 39.0104L99.2385 36.0181C99.6586 35.8663 100.223 36.1509 100.551 36.7013" fill="#0B0C0D"/>
</g>
<defs>
<clipPath id="clip0_11662_11064">
<rect width="116" height="27" fill="white" transform="translate(1 21)"/>
</clipPath>
</defs>
</svg>
