<svg width="118" height="69" viewBox="0 0 118 69" fill="none" xmlns="http://www.w3.org/2000/svg">
<path fill-rule="evenodd" clip-rule="evenodd" d="M18.3765 34.3125H32.3236V37.9553H27.6453V49.1288H23.0548V37.9553H18.3765V34.3125Z" fill="#0B0C0D"/>
<path fill-rule="evenodd" clip-rule="evenodd" d="M34.0664 34.3125H38.6615V49.1288H34.0664V34.3125Z" fill="#0B0C0D"/>
<path fill-rule="evenodd" clip-rule="evenodd" d="M40.6865 44.0944H45.0736C45.1661 44.8063 45.3602 45.2131 45.6469 45.5829C46.1184 46.1793 46.7887 46.4798 47.667 46.4798C48.3189 46.4798 48.8228 46.3272 49.1787 46.0221C49.5301 45.7216 49.7103 45.3657 49.7103 44.9588C49.7103 44.5751 49.5393 44.2284 49.2018 43.9279C48.8644 43.6321 48.0785 43.3455 46.8442 43.0773C44.824 42.6243 43.3863 42.0233 42.5264 41.2698C41.6619 40.5255 41.2274 39.5686 41.2274 38.4036C41.2274 37.6455 41.4493 36.9289 41.8931 36.2494C42.3369 35.5698 43.0026 35.0382 43.8902 34.6499C44.7824 34.2615 46.0028 34.0674 47.5515 34.0674C49.4561 34.0674 50.903 34.4187 51.9016 35.126C52.9001 35.8287 53.4965 37.0815 53.686 38.6209H49.3405C49.2249 37.9598 48.9846 37.5992 48.6194 37.2988C48.2495 36.9937 47.7456 36.8411 47.0984 36.8411C46.5668 36.8411 46.1646 36.9567 45.8965 37.1832C45.6284 37.4097 45.4943 37.6871 45.4943 38.0107C45.4943 38.2418 45.6052 38.4499 45.8271 38.6394C46.0398 38.8382 46.5576 39.0185 47.3666 39.1895C49.3775 39.6241 50.8198 40.0586 51.6889 40.4978C52.558 40.937 53.1914 41.4825 53.5889 42.1389C53.9865 42.7953 54.1853 43.5211 54.1853 44.3255C54.1853 45.2778 53.9218 46.1562 53.3948 46.9513C52.8678 47.751 52.1281 48.3566 51.185 48.7681C50.2374 49.1795 49.0447 49.3829 47.6023 49.3829C45.0736 49.3829 43.3216 48.8975 42.3461 47.9313C41.3707 46.9605 40.8206 45.5922 40.6911 44.1036L40.6865 44.0944Z" fill="#0B0C0D"/>
<path fill-rule="evenodd" clip-rule="evenodd" d="M55.1748 44.0944H59.5619C59.6544 44.8063 59.8485 45.2131 60.1398 45.5829C60.6113 46.1793 61.2816 46.4798 62.1599 46.4798C62.8118 46.4798 63.3157 46.3272 63.6716 46.0221C64.023 45.7216 64.2033 45.3657 64.2033 44.9588C64.2033 44.5751 64.0322 44.2284 63.6947 43.9279C63.3573 43.6321 62.5714 43.3455 61.3371 43.0773C59.3169 42.6243 57.8792 42.0233 57.0193 41.2698C56.1549 40.5255 55.7203 39.5686 55.7203 38.4036C55.7203 37.6455 55.9422 36.9289 56.386 36.2494C56.8298 35.5698 57.4955 35.0382 58.3877 34.6499C59.2753 34.2615 60.5003 34.0674 62.049 34.0674C63.9536 34.0674 65.4006 34.4187 66.3991 35.126C67.3976 35.8287 67.9894 37.0815 68.1789 38.6209H63.8334C63.7179 37.9598 63.4775 37.5992 63.1123 37.2988C62.747 36.9937 62.2385 36.8411 61.5913 36.8411C61.0597 36.8411 60.6575 36.9567 60.3894 37.1832C60.1213 37.4097 59.9872 37.6871 59.9872 38.0107C59.9872 38.2418 60.0982 38.4499 60.3201 38.6394C60.5373 38.8382 61.0505 39.0185 61.8595 39.1895C63.8704 39.6241 65.3127 40.0586 66.1818 40.4978C67.0509 40.937 67.6843 41.4825 68.0818 42.1389C68.4794 42.7953 68.6782 43.5211 68.6782 44.3255C68.6782 45.2778 68.4147 46.1562 67.8877 46.9513C67.3607 47.751 66.621 48.3566 65.6779 48.7681C64.7303 49.1795 63.5376 49.3829 62.0952 49.3829C59.5665 49.3829 57.8145 48.8975 56.839 47.9313C55.8636 46.9605 55.3135 45.5922 55.1841 44.1036L55.1748 44.0944Z" fill="#0B0C0D"/>
<path fill-rule="evenodd" clip-rule="evenodd" d="M75.8293 38.5148C76.3887 37.8629 77.133 37.5393 78.0575 37.5393C78.9821 37.5393 79.7865 37.8583 80.3505 38.5009C80.9145 39.1389 81.1965 40.1559 81.1965 41.5427C81.1965 43.1977 80.9283 44.3396 80.3875 44.9775C79.8466 45.6201 79.0838 45.9391 78.0991 45.9391C77.1145 45.9391 76.3841 45.6109 75.8247 44.959C75.2653 44.3072 74.988 43.2347 74.988 41.7462C74.988 40.2576 75.27 39.1666 75.8293 38.5148ZM71.4191 46.0547C72.0987 47.2057 72.9909 48.0517 74.0911 48.5787C75.1867 49.1104 76.5736 49.3739 78.2517 49.3739C79.9298 49.3739 81.2797 49.0688 82.3799 48.4493C83.4848 47.8345 84.3261 46.97 84.9132 45.8605C85.5003 44.751 85.7916 43.3318 85.7916 41.5982C85.7916 39.2174 85.1213 37.3683 83.7853 36.0415C82.4493 34.7194 80.54 34.0537 78.0714 34.0537C75.6028 34.0537 73.7768 34.7286 72.4223 36.0739C71.0678 37.4192 70.3975 39.3007 70.3975 41.723C70.3975 43.452 70.7396 44.8943 71.4191 46.05V46.0547Z" fill="#0B0C0D"/>
<path fill-rule="evenodd" clip-rule="evenodd" d="M85.6719 34.3125H99.6237V37.9553H94.9453V49.1288H90.3502V37.9553H85.6719V34.3125Z" fill="#0B0C0D"/>
<path fill-rule="evenodd" clip-rule="evenodd" d="M46.1553 31.2889H58.3226V19.6162H46.1553V31.2889ZM56.7139 20.6611H47.7363V23.2267H50.6256V30.406H53.8246V23.2267H56.7139V20.6611Z" fill="#0B0C0D"/>
<path fill-rule="evenodd" clip-rule="evenodd" d="M60.0054 31.2889H72.1727V19.6162H60.0054V31.2889ZM61.693 26.7356H64.795V29.8283H67.3514V26.7356H70.4395V24.1884H67.3514V21.1096H64.795V24.1884H61.693V26.7356Z" fill="#0B0C0D"/>
</svg>
