<svg width="118" height="69" viewBox="0 0 118 69" fill="none" xmlns="http://www.w3.org/2000/svg">
<path fill-rule="evenodd" clip-rule="evenodd" d="M107.044 39.8147C106.843 39.811 106.644 39.8473 106.457 39.9215C106.271 39.9957 106.101 40.1063 105.957 40.247C105.814 40.3876 105.7 40.5554 105.623 40.7405C105.545 40.9257 105.505 41.1244 105.505 41.3252C105.505 41.526 105.545 41.7247 105.623 41.9098C105.7 42.095 105.814 42.2628 105.957 42.4034C106.101 42.544 106.271 42.6547 106.457 42.7289C106.644 42.8031 106.843 42.8394 107.044 42.8356C107.242 42.8354 107.439 42.7961 107.622 42.7198C107.805 42.6436 107.971 42.532 108.111 42.3913C108.251 42.2507 108.362 42.0838 108.437 41.9003C108.513 41.7167 108.551 41.5201 108.55 41.3217C108.55 41.1239 108.512 40.9279 108.436 40.7451C108.36 40.5622 108.249 40.3961 108.109 40.2561C107.969 40.1162 107.803 40.0052 107.621 39.9294C107.438 39.8537 107.242 39.8147 107.044 39.8147ZM107.044 42.654C106.869 42.6542 106.696 42.6198 106.534 42.5529C106.373 42.486 106.226 42.3878 106.103 42.264C105.979 42.1402 105.881 41.9932 105.815 41.8315C105.749 41.6698 105.715 41.4966 105.715 41.3217C105.715 41.1475 105.75 40.9749 105.817 40.814C105.884 40.653 105.981 40.5069 106.105 40.3838C106.228 40.2608 106.375 40.1632 106.536 40.0969C106.697 40.0305 106.87 39.9965 107.044 39.9969C107.218 39.9969 107.39 40.0312 107.551 40.0978C107.712 40.1644 107.858 40.262 107.98 40.385C108.103 40.508 108.201 40.6541 108.268 40.8148C108.334 40.9755 108.368 41.1478 108.368 41.3217C108.369 41.4963 108.335 41.6692 108.269 41.8307C108.203 41.9922 108.106 42.139 107.983 42.2628C107.86 42.3866 107.713 42.4849 107.552 42.552C107.391 42.6191 107.218 42.6538 107.044 42.654Z" fill="#0B0C0D"/>
<path fill-rule="evenodd" clip-rule="evenodd" d="M107.819 40.926C107.819 40.7835 107.756 40.6336 107.63 40.5621C107.503 40.4868 107.361 40.4794 107.218 40.4794H106.482V42.1676H106.688V41.3889H107.068L107.55 42.1676H107.796L107.285 41.3889C107.586 41.3805 107.819 41.2581 107.819 40.926ZM107.005 41.2263H106.688V40.6293H107.17C107.38 40.6293 107.61 40.6611 107.61 40.9223C107.61 41.2661 107.241 41.2263 107.005 41.2263ZM98.1898 32.7642L101.278 29.4668C101.457 29.2247 101.546 29.0552 101.546 28.9101C101.546 28.668 101.338 28.571 100.683 28.571H99.904V26.4893H108.338V28.571H107.23C105.95 28.571 105.712 28.7644 103.927 31.0156L99.0411 36.2916V39.5111C99.0411 40.3348 99.4569 40.6246 100.648 40.6246H102.492V42.6332H90.6791V40.6246H92.5235C93.7133 40.6246 94.1301 40.3348 94.1301 39.5111V36.2916L88.3759 29.926C87.4251 28.8131 87.5564 28.571 84.909 28.571V26.4893H95.5921V28.571H94.8315C94.0576 28.571 93.7297 28.7162 93.7297 29.0065C93.7297 29.2491 93.9675 29.4424 94.1164 29.6358L97.0276 32.8087C97.3735 33.1684 97.7957 33.215 98.1898 32.7642ZM26.5112 26.4888H29.0882V32.2975H26.7082C26.4974 31.1364 25.7706 30.6846 25.108 30.0754C23.9124 28.9768 21.3232 28.062 19.1455 28.062C16.3349 28.062 13.9629 28.9339 13.9629 30.2158C13.9629 33.7744 30.0369 30.9425 30.0369 37.6709C30.0369 41.1802 26.5938 43.1407 20.4105 43.1407C18.2699 43.1407 15.0308 42.4764 13.1196 41.4615C12.5205 41.1156 12.2662 41.7889 12.1539 42.6327H9.51172V36.63H11.9018C12.4288 38.1551 13.1551 38.4692 13.823 39.0746C14.982 40.1399 17.7408 40.9149 20.2707 40.89C24.0851 40.8523 25.3966 40.0186 25.3966 38.8082C25.3966 37.5983 24.0994 37.3075 19.9195 36.6544L16.3704 36.0733C12.3653 35.4679 9.44922 34.5726 9.44922 31.378C9.44922 28.062 13.1381 25.9802 18.9707 25.9802C21.4286 25.9802 23.4849 26.3087 25.4586 27.4242C26.0053 27.7797 26.518 27.822 26.5112 26.4888ZM76.8039 36.2142L76.8547 29.7581C76.8547 28.9111 76.414 28.6208 75.1549 28.6208H73.6754V26.6122H83.0883V28.6208H81.8615C80.6014 28.6208 80.1606 28.9116 80.1606 29.7581V42.7556L76.4765 42.7265L64.5453 31.4283V39.6335C64.5453 40.4567 64.9861 40.7708 66.2452 40.7708H67.883V42.7556H58.1073V40.7708H59.7271C60.9862 40.7708 61.4269 40.4561 61.4269 39.6335V29.7581C61.4269 28.9111 60.9862 28.6208 59.7271 28.6208H58.1073V26.6122H66.5593L76.8039 36.2142ZM45.274 25.8584C37.7722 25.8584 33.0764 29.1749 33.0764 34.499C33.0764 39.7278 37.7071 43.0189 45.0452 43.0189C52.8393 43.0189 57.3731 39.776 57.3731 34.2331C57.3736 29.2475 52.4812 25.8584 45.274 25.8584ZM45.1034 40.9138C40.951 40.9138 38.5642 38.5174 38.5642 34.3782C38.5642 30.3366 41.0549 27.9402 45.3111 27.9402C49.3941 27.9402 51.7809 30.3853 51.7809 34.5483C51.7809 38.6143 49.3591 40.9138 45.1034 40.9138Z" fill="#0B0C0D"/>
</svg>
