<svg width="118" height="69" viewBox="0 0 118 69" fill="none" xmlns="http://www.w3.org/2000/svg">
<path fill-rule="evenodd" clip-rule="evenodd" d="M99.2758 22.6523C98.3849 22.6523 97.6641 23.3731 97.6641 24.2551C97.6641 25.1371 98.3849 25.8668 99.2758 25.8668C100.167 25.8668 100.879 25.146 100.879 24.2551C100.879 23.3642 100.162 22.6523 99.2758 22.6523ZM99.2758 25.6743C98.4923 25.6743 97.861 25.0431 97.861 24.2551C97.861 23.4672 98.4923 22.8449 99.2758 22.8449C100.059 22.8449 100.686 23.4761 100.686 24.2551C100.686 25.0341 100.055 25.6743 99.2758 25.6743Z" fill="#0B0C0D"/>
<path fill-rule="evenodd" clip-rule="evenodd" d="M100.099 23.8349C100.099 23.6827 100.032 23.5215 99.898 23.4499C99.7637 23.3693 99.6115 23.3604 99.4593 23.3604H98.6758V25.1556H98.8952V24.3274H99.2981L99.8129 25.1556H100.073L99.5309 24.3274C99.8488 24.3184 100.099 24.1886 100.099 23.8349ZM99.2309 24.1528H98.8952V23.517H99.41C99.6339 23.517 99.8756 23.5529 99.8756 23.8304C99.8756 24.1976 99.4861 24.1528 99.2309 24.1528Z" fill="#0B0C0D"/>
<path fill-rule="evenodd" clip-rule="evenodd" d="M45.4885 50.7506L35.0212 45.6379C34.7929 45.517 34.672 45.2126 34.6765 45.0156L34.7033 42.1951C34.7033 41.9981 34.7481 41.7921 35.0078 41.6041C36.127 40.8922 39.5922 38.9716 43.1739 33.7469C47.9419 26.7852 43.1739 20.9382 35.7196 22.532C29.0981 23.9467 22.3602 27.5283 19.4367 29.4803C16.8311 31.2174 17.1937 33.3171 17.1221 35.1975C17.2653 35.9944 17.5563 35.9228 18.2055 35.1258C23.0541 30.6399 30.4367 27.2373 31.8112 26.6598C33.1856 26.0823 36.4404 24.1258 40.2772 24.9943C43.9618 25.8271 43.0664 30.8369 41.9427 32.9545C40.7115 35.2691 37.2015 38.6358 35.6122 39.4686C35.0078 39.7864 34.7794 39.4686 34.7794 38.9626L35.0346 28.0701C35.0346 27.3448 34.7078 27.0224 33.987 27.2731L32.8275 27.8507C32.0305 28.3208 32.0664 28.4998 31.9947 29.0819L31.8201 41.6354C31.8157 41.9085 31.6858 42.1234 31.5381 42.1906L27.7595 44.3172C26.8909 44.7514 27.1103 45.4006 27.7595 45.62L30.7994 47.0661C31.5246 47.3571 31.7395 47.572 31.7395 48.2972L31.6321 54.377C34.3452 53.8353 34.5287 52.5325 34.6004 51.664V49.8194C34.672 49.3852 34.9272 49.2419 35.2898 49.3135L44.1185 53.5846C44.9154 53.9472 45.3497 53.7995 45.9272 52.7877C46.5048 51.7759 46.5764 51.27 45.493 50.7596L45.4885 50.7506Z" fill="#0B0C0D"/>
<path fill-rule="evenodd" clip-rule="evenodd" d="M60.9167 35.4164C59.6899 36.1238 59.1214 37.449 59.6049 38.2862C60.0884 39.1234 61.5479 39.2622 62.7746 38.5548C64.0013 37.8474 64.5341 36.5581 64.0506 35.7208C63.567 34.8836 62.1434 34.709 60.9167 35.4164Z" fill="#0B0C0D"/>
<path fill-rule="evenodd" clip-rule="evenodd" d="M56.3903 36.3165C56.0546 36.7239 55.4143 37.9641 55.0517 38.7207C54.6891 39.4818 53.928 41.201 53.1714 41.201C52.37 41.201 52.267 39.2087 52.267 38.4879C52.267 37.7671 51.8327 37.6552 51.6178 37.691C51.3985 37.7268 50.7851 37.9462 50.606 38.7028C50.4269 39.4639 49.4465 42.7545 48.363 42.7545C47.6736 42.7545 47.1677 40.7622 47.1319 40.1489C47.096 39.5355 46.805 39.0251 46.1917 39.0251C45.7574 39.0251 45.2157 39.24 44.9963 39.4952C44.7814 39.7504 44.7411 40.1444 43.5861 39.8937C42.5384 39.8579 41.5221 40.3996 40.2954 42.4635C39.5567 43.7036 38.9523 46.0182 40.0761 46.9495C41.1237 47.818 42.9727 46.26 43.5144 45.6108C44.0561 44.9617 44.5262 44.4871 44.7456 44.1289C44.9605 43.7663 45.1799 43.8021 45.2873 44.1647C45.3948 44.5274 46.0126 45.9376 46.805 45.9018C47.6019 45.866 48.6137 45.2527 49.8091 43.1529C50.024 42.7187 50.3508 42.7545 50.4225 43.1171C50.4941 43.4798 50.9642 44.6751 51.7611 44.6751C52.558 44.6751 53.3683 43.4663 53.7892 42.759C54.0802 42.271 54.5145 42.5038 54.5145 42.9783C54.5145 43.4529 54.2951 54.5559 54.2951 54.5559C54.2951 55.0618 54.4921 55.2051 54.8547 55.2051H56.4306C56.7216 55.2051 56.9723 54.9499 56.9723 54.5559L57.2992 36.5538C57.2992 36.1195 56.8112 35.8106 56.3948 36.3165H56.3903ZM44.0875 43.4081C43.7607 43.9498 42.8921 45.4004 42.1355 45.1452C41.737 44.9258 42.2698 43.4798 42.534 42.9739C42.9324 42.2128 44.0964 41.004 44.6337 41.3084C45.1396 41.5994 44.4188 42.8619 44.092 43.4081H44.0875Z" fill="#0B0C0D"/>
<path fill-rule="evenodd" clip-rule="evenodd" d="M99.2177 32.3094C99.0744 32.4348 98.8371 32.6542 98.3133 32.4169C97.409 32.0543 97.3373 30.353 96.8673 28.7995C96.4464 27.4026 95.4256 27.4877 95.0585 28.1279L93.9527 29.9008C93.7557 30.2634 93.3215 31.0962 92.8872 31.0962C92.3813 31.0962 92.6051 30.3709 92.632 29.6501C92.6499 29.1621 92.341 28.5487 91.8351 28.5487C91.2575 28.5487 90.6397 29.4352 90.1696 30.447C89.8428 31.1544 88.9922 33.8674 87.9266 33.8674C87.2372 33.8674 87.1655 31.8796 87.1297 31.2618C87.0939 30.6485 86.8745 29.8874 86.2612 29.8874C85.8448 29.8874 85.5717 30.1023 85.3568 30.3575C85.1419 30.6127 85.1016 30.8275 84.345 30.7201C83.2974 30.6843 81.5603 31.6603 80.3291 33.7242C79.5904 34.9643 78.6995 37.5699 79.8232 38.5012C80.8709 39.3697 82.7557 37.3416 83.2974 36.6924C83.8391 36.0433 84.3092 35.5687 84.5286 35.2106C84.7435 34.8479 84.9628 34.8837 85.0703 35.2464C85.1777 35.609 85.7956 37.0193 86.588 36.9835C87.3849 36.9476 88.0341 36.7686 89.2294 34.6688C89.4488 34.2346 89.8428 34.1808 89.9189 34.5435C89.9905 34.9061 90.0622 35.8642 90.8233 35.8642C92.1261 35.8642 93.6035 32.6945 93.9706 31.9558C94.2974 31.3066 94.8212 31.4857 95.0003 31.9737C95.26 32.6721 95.4883 34.924 96.8986 34.924C98.3088 34.924 99.2669 33.4242 99.5579 32.9541C99.8848 32.484 99.7146 31.8841 99.2132 32.3229L99.2177 32.3094ZM83.8749 34.4808C83.5481 35.0225 82.8273 36.2179 82.0662 35.9627C81.6678 35.7433 82.1647 34.6957 82.4289 34.1898C82.8273 33.4287 83.9913 32.202 84.5286 32.5064C85.0345 32.7974 84.2018 33.9346 83.8794 34.4763L83.8749 34.4808Z" fill="#0B0C0D"/>
<path fill-rule="evenodd" clip-rule="evenodd" d="M76.886 32.5826C76.886 32.5826 73.8103 30.3396 72.9417 29.3278C72.3597 28.6473 72.7626 28.1324 73.1208 27.8459C75.2922 26.3998 78.6947 24.1569 80.0333 20.6827C81.3227 17.3339 79.308 14.4238 77.862 13.9537C75.8786 13.309 71.6747 14.6029 69.575 18.5113C68.214 21.0408 67.5872 21.878 67.4037 28.7503C67.3678 30.0531 67.332 31.535 67.332 33.1646C67.332 34.7943 67.1529 39.2086 66.9694 40.0368C66.2799 41.9888 68.3438 40.8338 69.284 40.0727C70.2242 39.3116 70.1525 38.1744 70.1525 37.6864C70.1525 37.0731 70.1884 26.2163 70.5152 23.7942C70.7166 22.2855 70.9495 19.4873 72.5433 17.0652C74.1371 14.6432 75.7622 15.6192 76.1965 16.0176C76.6308 16.4161 77.2441 17.4279 76.9218 19.4918C76.4159 22.6929 72.7268 26.1849 71.7822 27.2729C70.842 28.3563 71.0569 29.3009 71.6031 30.0576C71.9881 30.5993 72.9417 31.6514 73.9177 32.6274C74.8937 33.6034 74.7863 34.4719 74.643 35.1256C74.1371 37.0775 68.8542 42.3604 68.8542 42.3604C67.7305 43.5558 68.89 45.5078 69.2885 46.1614C69.6869 46.8106 70.1928 46.5957 70.5197 46.054C71.8225 43.6319 77.4322 37.767 77.4322 37.767C79.0618 35.7031 78.3724 33.7153 76.8905 32.5916L76.886 32.5826Z" fill="#0B0C0D"/>
</svg>
