<svg width="118" height="69" viewBox="0 0 118 69" fill="none" xmlns="http://www.w3.org/2000/svg">
<path d="M15.339 40.2337V39.5831H15.0957V39.4971H15.6796V39.5831H15.4363V40.2337H15.339Z" fill="#0B0C0D"/>
<path d="M15.7769 40.2337V39.4971H15.924L16.0982 40.0187C16.114 40.0673 16.1265 40.1036 16.1333 40.1273C16.1412 40.1002 16.1548 40.0606 16.1729 40.0096L16.3494 39.4971H16.4807V40.2337H16.3867V39.617L16.1729 40.2337H16.0846L15.8719 39.6068V40.2337H15.778H15.7769Z" fill="#0B0C0D"/>
<path fill-rule="evenodd" clip-rule="evenodd" d="M15.7423 22.543C22.3446 22.543 27.6989 27.8973 27.6989 34.4996C27.6989 41.1019 22.3446 46.4562 15.7423 46.4562C9.13993 46.4562 3.78564 41.1019 3.78564 34.4996C3.78564 27.8973 9.13993 22.543 15.7423 22.543ZM15.7423 24.376C10.1515 24.376 5.61868 28.91 5.61868 34.4996C5.61868 40.0892 10.1526 44.6232 15.7423 44.6232C21.3319 44.6232 25.8658 40.0892 25.8658 34.4996C25.8658 28.91 21.333 24.376 15.7423 24.376Z" fill="#0B0C0D"/>
<path fill-rule="evenodd" clip-rule="evenodd" d="M15.745 26.0996L17.6063 31.8273H23.6293L18.756 35.3666L20.6173 41.0955L15.745 37.555L10.8728 41.0955L12.7341 35.3666L7.86182 31.8273H13.8837L15.745 26.0996Z" fill="#0B0C0D"/>
<path fill-rule="evenodd" clip-rule="evenodd" d="M112.893 30.4155H113.155C113.29 30.4155 113.436 30.4416 113.436 30.6102C113.436 30.8104 113.275 30.8195 113.1 30.8195H112.893V30.4155ZM112.694 31.5256H112.893V30.979H113.103L113.451 31.5256H113.663L113.298 30.9655C113.488 30.9451 113.634 30.8489 113.634 30.6192C113.634 30.3748 113.491 30.256 113.187 30.256H112.694V31.5256ZM112.217 30.8863C112.217 31.4181 112.609 31.8186 113.12 31.8186C113.632 31.8186 114.017 31.4181 114.017 30.8863C114.017 30.3544 113.626 29.9652 113.12 29.9652C112.614 29.9652 112.217 30.3658 112.217 30.8863ZM112.018 30.8863C112.018 31.5108 112.52 31.9782 113.119 31.9782C113.718 31.9782 114.214 31.5108 114.214 30.8863C114.214 30.2617 113.714 29.8057 113.119 29.8057C112.524 29.8057 112.018 30.273 112.018 30.8863Z" fill="#0B0C0D"/>
<path fill-rule="evenodd" clip-rule="evenodd" d="M100.116 29.8008V31.6157H95.5424V33.666H98.6846C99.7527 33.666 100.618 34.5271 100.618 35.5884V37.2755C100.618 38.3369 99.7527 39.1979 98.6846 39.1979H93.371V37.383H98.6201V35.4821H95.4779C94.4097 35.4821 93.5441 34.621 93.5441 33.5596V31.7232C93.5441 30.6619 94.4097 29.8008 95.4779 29.8008H100.116ZM110.598 39.1991H105.96C104.892 39.1991 104.026 38.338 104.026 37.2766V31.7232C104.026 30.6619 104.892 29.8008 105.96 29.8008H110.598V31.6157H106.025V33.709H110.598V35.5239H106.025V37.3819H110.598V39.1968V39.1991ZM79.2792 39.1991H74.6412C73.5731 39.1991 72.7075 38.338 72.7075 37.2766V31.7232C72.7075 30.6619 73.5731 29.8008 74.6412 29.8008H79.2792V31.6157H74.7057V33.709H79.2792V35.5239H74.7057V37.3819H79.2792V39.1968V39.1991ZM52.5995 29.8008H57.0033C58.0714 29.8008 58.937 30.6619 58.937 31.7232V39.1991H56.9388V31.6168H53.6088V39.1991H51.6105V29.8008H52.5983H52.5995ZM84.8644 33.709H88.4071V31.6157H84.8644V33.709ZM90.4042 31.9789V33.6026C90.4042 34.5859 89.6619 35.3961 88.7047 35.5115L90.5773 39.1991H88.329L86.6951 35.5251H84.8644V39.1991H82.8661V29.8008H88.4705C89.5386 29.8008 90.4042 30.6619 90.4042 31.7232V31.9801V31.9789ZM63.5117 29.8008L65.7453 37.6184L68.1079 29.8008H70.3845L67.3339 39.1991H64.1974L61.2759 29.8008H63.5095H63.5117ZM30.6245 31.7232C30.6245 30.6619 31.4901 29.8008 32.5583 29.8008H37.5199V31.6157H32.6228V37.383H37.5199V39.1979H32.5583C31.4901 39.1979 30.6245 38.3369 30.6245 37.2755V31.7221V31.7232ZM40.5704 31.7232C40.5704 30.6619 41.436 29.8008 42.5042 29.8008H46.6285C47.6967 29.8008 48.5623 30.6619 48.5623 31.7232V37.2766C48.5623 38.338 47.6967 39.1991 46.6285 39.1991H42.5042C41.436 39.1991 40.5704 38.338 40.5704 37.2766V31.7232ZM42.5687 31.6168V37.3841H46.564V31.6168H42.5687Z" fill="#0B0C0D"/>
</svg>
