<svg width="24" height="24" viewBox="0 0 24 24" fill="none" xmlns="http://www.w3.org/2000/svg">
<path d="M3 3.00447H3.22694C4.81411 3.00447 6.40093 3.00694 7.9881 3.00058C8.13232 3.00058 8.21607 3.04227 8.29705 3.16238C9.72123 5.27807 11.1483 7.39199 12.5783 9.50415C12.6071 9.54725 12.6387 9.58823 12.6825 9.64758C12.9116 9.37909 13.1343 9.11942 13.3547 8.8587C14.9584 6.96299 16.5618 5.06563 18.1648 3.16662C18.2621 3.0511 18.3608 2.99599 18.5165 3.00023C18.944 3.01224 19.3718 3.00447 19.8423 3.00447C17.6706 5.57141 15.5215 8.11116 13.3616 10.6633L20.4015 21.0787C20.3348 21.084 20.2872 21.0911 20.2396 21.0911C18.6178 21.0911 16.996 21.0921 15.3741 21.0943C15.2615 21.0943 15.2004 21.0589 15.1368 20.965C13.626 18.7235 12.1129 16.4841 10.5977 14.2466C10.5629 14.194 10.5247 14.1431 10.4768 14.0749C10.1841 14.4194 9.9009 14.7514 9.61905 15.0846C8.07463 16.9092 6.53032 18.7345 4.98613 20.5605C4.90307 20.6587 4.80611 20.7477 4.73904 20.8562C4.61706 21.0533 4.45441 21.108 4.23095 21.0974C3.83477 21.0794 3.43719 21.0925 3.00035 21.0925L9.79699 13.0603L3 3.00447ZM18.2875 19.9563C18.243 19.8857 18.2124 19.8316 18.1777 19.7797C17.0874 18.1949 15.9967 16.6096 14.9057 15.0238C12.4533 11.4585 10.0017 7.892 7.5509 4.32433C7.47792 4.21834 7.40494 4.16888 7.27079 4.171C6.66852 4.17984 6.06626 4.17454 5.46364 4.17454H5.09699C5.14322 4.24872 5.17102 4.29783 5.20125 4.34446C8.75486 9.51039 12.3073 14.6769 15.8586 19.844C15.8835 19.886 15.9195 19.92 15.9625 19.942C16.0056 19.9641 16.0539 19.9733 16.1019 19.9687C16.7736 19.9638 17.4458 19.9666 18.1175 19.9659C18.1659 19.9659 18.2156 19.9606 18.2875 19.9563Z" fill="white"/>
</svg>
