<svg width="24" height="24" viewBox="0 0 24 24" fill="none" xmlns="http://www.w3.org/2000/svg">
<path d="M17.1873 13.315H14.0157V22.7941H10.1931V13.3179H7V9.61806H10.1899C10.1899 9.51405 10.1899 9.43482 10.1899 9.35559C10.1931 8.39427 10.1659 7.43133 10.2074 6.47083C10.2643 5.16456 10.6742 3.99237 11.6888 3.0985C12.4148 2.45979 13.2831 2.14409 14.2318 2.04901C15.2667 1.945 16.3003 2.02586 17.3323 2.1128C17.4794 2.12499 17.6265 2.13515 17.7837 2.14734V5.45669C17.7151 5.45669 17.644 5.45669 17.5729 5.45669C16.8488 5.46807 16.124 5.45954 15.4012 5.49732C14.5479 5.5412 14.0604 6.01658 14.0266 6.87104C13.9913 7.76491 14.0153 8.65878 14.014 9.55265C14.019 9.5736 14.0264 9.59391 14.036 9.61319H17.6659C17.5034 10.8544 17.3474 12.0701 17.1873 13.315Z" fill="white"/>
</svg>
