<svg width="24" height="24" viewBox="0 0 24 24" fill="none" xmlns="http://www.w3.org/2000/svg">
<path d="M22.8995 12.4497C22.8995 14.517 22.2863 16.5378 21.1375 18.2565C19.9888 19.9752 18.3561 21.3146 16.4459 22.1051C14.5358 22.8957 12.4341 23.102 10.4067 22.6978C8.37936 22.2936 6.51742 21.2972 5.05647 19.8346C3.59552 18.372 2.60122 16.5089 2.19935 14.4811C1.79748 12.4533 2.00611 10.3518 2.79884 8.44259C3.59158 6.53336 4.93279 4.90215 6.65279 3.75535C8.3728 2.60854 10.3943 1.99766 12.4616 2.00001C13.8336 1.99898 15.1923 2.26866 16.4599 2.79359C17.7275 3.31853 18.8791 4.08839 19.8487 5.0591C20.8183 6.02981 21.5869 7.18227 22.1104 8.45048C22.6339 9.71869 22.902 11.0777 22.8995 12.4497ZM6.97383 19.4841C7.01465 19.5164 7.04241 19.5437 7.07425 19.5682C8.55354 20.6805 10.2104 21.2826 12.0664 21.3585C13.3313 21.4111 14.5932 21.1986 15.7712 20.7348C15.8761 20.694 15.9402 20.656 15.9141 20.5185C15.6283 19.0192 15.2703 17.5387 14.7936 16.0884C14.5531 15.3557 14.2935 14.6295 14.0396 13.8907C13.9662 13.9151 13.9139 13.9278 13.8658 13.9494C13.2857 14.2119 12.6963 14.4556 12.1293 14.7434C10.6341 15.5014 9.26542 16.4333 8.15351 17.7093C7.68164 18.2489 7.27181 18.8257 6.97383 19.4841ZM12.6991 10.8929C9.6977 11.7909 6.64932 12.1518 3.55808 12.1656C3.24907 13.8245 4.48916 17.2272 5.81701 18.3828C7.57673 15.4157 10.2194 13.5637 13.4094 12.3734L12.6991 10.8929ZM11.9546 9.52177C10.9398 7.72858 9.86302 6.01376 8.64334 4.39528C6.15745 5.4925 4.17077 8.0784 3.73931 10.6129C6.51306 10.6009 9.27388 10.2342 11.9546 9.52177ZM10.3292 3.7736C11.6068 5.44066 12.6987 7.17058 13.6861 8.98295C15.4842 8.25025 17.1329 7.33508 18.3489 5.76191C16.012 3.74544 13.3531 3.1507 10.3292 3.7736ZM19.3502 6.79015C18.0163 8.43679 16.2802 9.4883 14.3801 10.3096C14.6287 10.8729 14.8699 11.4248 15.1193 11.9721C15.1381 12.013 15.2226 12.0485 15.2744 12.0464C15.5051 12.0366 15.7345 12.0085 15.9647 11.9934C17.6208 11.889 19.2835 11.9818 20.9177 12.2697C21.0659 12.2954 21.2153 12.3134 21.37 12.3358C21.3324 10.239 20.6715 8.407 19.3519 6.78851L19.3502 6.79015ZM17.4407 19.8617C19.5498 18.3612 20.8185 16.3843 21.2712 13.8682C19.4323 13.3445 17.5942 13.1853 15.7002 13.4743C16.4537 15.5602 17.0464 17.6628 17.4407 19.8617Z" fill="white"/>
</svg>
