<svg width="48" height="48" viewBox="0 0 48 48" fill="none" xmlns="http://www.w3.org/2000/svg">
<path fill-rule="evenodd" clip-rule="evenodd" d="M26.8291 17.7563L32.5539 16.8909V9.74622L26.8291 11.4811V17.7563Z" fill="#0B0C0D"/>
<path fill-rule="evenodd" clip-rule="evenodd" d="M40 27.2645L23.9717 29.5704V18.4965L40 20.78V27.2645ZM29.8236 16.3068L23.9717 14.9285V5.71436L29.8236 8.47961V16.3068ZM29.8757 31.6933L24.0284 33.067V42.2858L29.8757 39.5205V31.6933ZM36.1522 17.7386L32.5024 16.8732V9.74635L36.1522 11.4725V17.7386Z" fill="#1F1F1F"/>
<path fill-rule="evenodd" clip-rule="evenodd" d="M36.2083 17.7381L30.6531 18.4206L26.8286 17.7559L32.6051 16.8818L36.2083 17.7381Z" fill="#0B0C0D"/>
<path fill-rule="evenodd" clip-rule="evenodd" d="M21.1706 17.7563L15.4458 16.8909V9.74622L21.1706 11.4811V17.7563Z" fill="#1F1F1F"/>
<path fill-rule="evenodd" clip-rule="evenodd" d="M8 27.2645L24.0283 29.5704V18.4965L8 20.78V27.2645ZM18.1765 16.3068L24.0283 14.9285V5.71436L18.1765 8.47961V16.3068ZM18.1765 31.6933L24.0283 33.067V42.2858L18.1765 39.5205V31.6933ZM11.8478 17.7386L15.4976 16.8732V9.74635L11.8478 11.4725V17.7386Z" fill="#0B0C0D"/>
<path fill-rule="evenodd" clip-rule="evenodd" d="M11.8477 17.7381L17.3978 18.4206L21.2223 17.7559L15.4458 16.8818L11.8477 17.7381ZM29.8755 16.3068L24.0282 17.3148L18.1763 16.3068L24.0282 14.9285L29.8755 16.3068Z" fill="#0B0C0D"/>
<path fill-rule="evenodd" clip-rule="evenodd" d="M29.8755 31.6933L24.0282 30.6853L18.1763 31.6933L24.0282 33.0624L29.8755 31.6933Z" fill="#0B0C0D"/>
</svg>
