<svg width="49" height="48" viewBox="0 0 49 48" fill="none" xmlns="http://www.w3.org/2000/svg">
<path d="M29.2023 28.9912C29.7167 28.9912 30.2102 29.1701 30.6047 29.4934L30.629 29.5125L30.3701 29.9278C30.0855 29.6675 29.7221 29.5098 29.3376 29.4795C28.9531 29.4493 28.5695 29.5484 28.2478 29.761C27.926 29.9736 27.6845 30.2877 27.5615 30.6532C27.4385 31.0188 27.4412 31.4149 27.569 31.7788C27.6969 32.1426 27.9426 32.4534 28.2672 32.6617C28.5918 32.87 28.9766 32.9639 29.3607 32.9286C29.7447 32.8932 30.106 32.7306 30.3871 32.4665C30.6682 32.2024 30.853 31.852 30.9123 31.4709L30.9157 31.4466H29.4352L29.7358 30.9653H31.4145V31.2068C31.4145 32.4267 30.4222 33.419 29.204 33.419C28.6278 33.4031 28.0805 33.163 27.6785 32.7499C27.2765 32.3368 27.0515 31.7832 27.0513 31.2068C27.051 30.6303 27.2756 30.0766 27.6773 29.6631C28.079 29.2497 28.6261 29.0075 29.2023 28.9912ZM5.84325 28.9912C6.44626 28.9912 7.02493 29.2431 7.43852 29.6741L7.45937 29.6949L7.18654 30.1155C6.9637 29.839 6.66119 29.6377 6.32007 29.539C5.97895 29.4403 5.61572 29.4489 5.27966 29.5637C4.94359 29.6784 4.65096 29.8938 4.44145 30.1805C4.23194 30.4672 4.1157 30.8115 4.10849 31.1665C4.10129 31.5216 4.20346 31.8702 4.40117 32.1652C4.59887 32.4602 4.88252 32.6873 5.21365 32.8155C5.54479 32.9438 5.90737 32.9672 6.25221 32.8824C6.59706 32.7976 6.90748 32.6088 7.14136 32.3416L7.15874 32.3207L7.52541 32.6335C7.23175 32.9765 6.84017 33.2214 6.40325 33.3354C5.96634 33.4493 5.50502 33.4268 5.08125 33.271C4.65748 33.1151 4.29156 32.8332 4.03264 32.4633C3.77372 32.0934 3.6342 31.6531 3.63281 31.2016C3.63281 29.9852 4.62508 28.9912 5.84325 28.9912ZM10.0834 29.019C11.1938 29.019 11.637 29.5403 11.637 30.2927C11.637 30.9235 11.3172 31.3684 10.5578 31.5196L10.5335 31.5248L11.7534 33.3929H11.1695L10.0174 31.5544H9.18671V33.3929H8.7123V29.019H10.0834ZM20.3015 32.9689V33.3929H17.309V32.9689H20.3015ZM13.3191 29.019L14.5199 31.0156C14.5547 31.0785 14.581 31.1457 14.5981 31.2155C14.6155 31.1634 14.6311 31.0991 14.6728 31.0243L14.6833 31.007L15.8788 29.0172H16.395L13.6771 33.3929H13.2062L14.3305 31.5683L12.7978 29.0172L13.3191 29.019ZM43.7682 32.9689V33.3929H40.7758V32.9689H43.7682ZM35.8423 29.019L38.4698 32.6422C38.4472 32.5379 38.435 32.5014 38.4333 32.4215V29.019H38.906V33.3946H38.4576L35.8249 29.7592C35.8423 29.8166 35.8649 29.8948 35.8666 30.006V33.3946H35.394V29.019H35.8423ZM33.4772 29.019V33.3946H33.0045V29.019H33.4772ZM22.3642 29.019L24.9917 32.6422C24.9691 32.5379 24.9569 32.5014 24.9552 32.4215V29.019H25.4279V33.3946H24.9795L22.3468 29.7592C22.3642 29.8166 22.3868 29.8948 22.3885 30.006V33.3946H21.9158V29.019H22.3642ZM43.7682 30.8697V31.2989H40.7758V30.8679L43.7682 30.8697ZM20.3015 30.8697V31.2989H17.309V30.8679L20.3015 30.8697ZM10.0903 29.4412H9.18671V31.1234H10.0851C10.7524 31.1234 11.1539 30.927 11.1539 30.291C11.1521 29.6532 10.7507 29.4412 10.0903 29.4412ZM44.83 28.4577C44.899 28.4536 44.9682 28.4637 45.0331 28.4873C45.0981 28.511 45.1576 28.5476 45.2079 28.5951C45.2582 28.6425 45.2982 28.6997 45.3256 28.7632C45.353 28.8267 45.3671 28.8951 45.3671 28.9642C45.3671 29.0334 45.353 29.1018 45.3256 29.1652C45.2982 29.2287 45.2582 29.2859 45.2079 29.3334C45.1576 29.3808 45.0981 29.4175 45.0331 29.4411C44.9682 29.4647 44.899 29.4748 44.83 29.4708C44.761 29.4748 44.6919 29.4647 44.6269 29.4411C44.5619 29.4175 44.5025 29.3808 44.4522 29.3334C44.4019 29.2859 44.3618 29.2287 44.3344 29.1652C44.307 29.1018 44.2929 29.0334 44.2929 28.9642C44.2929 28.8951 44.307 28.8267 44.3344 28.7632C44.3618 28.6997 44.4019 28.6425 44.4522 28.5951C44.5025 28.5476 44.5619 28.511 44.6269 28.4873C44.6919 28.4637 44.761 28.4536 44.83 28.4577ZM43.7682 29.0172V29.443H40.7758V29.019L43.7682 29.0172ZM20.3015 29.0172V29.443H17.7469L18.0093 29.019L20.3015 29.0172ZM44.83 28.5428C44.7185 28.5428 44.6115 28.5871 44.5327 28.666C44.4538 28.7448 44.4095 28.8518 44.4095 28.9633C44.4095 29.0749 44.4538 29.1818 44.5327 29.2607C44.6115 29.3396 44.7185 29.3839 44.83 29.3839C44.9418 29.3839 45.049 29.3395 45.128 29.2605C45.207 29.1814 45.2514 29.0742 45.2514 28.9625C45.2514 28.8507 45.207 28.7435 45.128 28.6645C45.049 28.5855 44.9418 28.5428 44.83 28.5428ZM44.8335 28.6992C44.9638 28.6992 45.0212 28.7652 45.0212 28.8573C45.0212 28.9269 44.9899 28.979 44.9186 29.0033L44.9082 29.0068L45.0472 29.2205H44.9465L44.83 29.0398C44.8265 29.0363 44.8248 29.0276 44.8231 29.0224V29.0155H44.7223V29.2205H44.6389V28.6992H44.8335ZM44.8352 28.7791H44.7223V28.9373H44.8335C44.9047 28.9373 44.9378 28.9199 44.9378 28.8591C44.9378 28.8017 44.9047 28.7791 44.8352 28.7791ZM22.5901 14.6111L22.743 14.599C18.6419 15.5547 16.2073 18.6514 16.2073 19.0546V19.0563C16.2073 19.0581 16.209 19.0407 16.2108 19.1189V19.1293C16.2942 19.569 17.5071 21.6925 22.1922 22.9542C16.8225 22.5284 14.3826 19.9165 14.2627 19.1519L14.261 19.1276H14.2592C14.2592 19.0477 14.2575 19.0633 14.2575 19.0685L14.2592 19.0459C14.3235 18.2604 17.6097 15.0282 22.5901 14.6111ZM24.2948 14.5781C29.8713 14.8683 33.1157 18.184 33.1453 19.1137V19.1102L33.1435 19.1676V19.178H33.1401C33.0966 19.6437 31.3241 21.5379 28.6723 22.4102C25.4313 23.4755 20.2163 23.088 20.2163 19.0251C20.2175 18.1058 20.5837 17.2247 21.2345 16.5755C21.8854 15.9263 22.7674 15.5623 23.6866 15.5634C24.6059 15.5646 25.487 15.9309 26.1362 16.5817C26.7854 17.2325 27.1494 18.1145 27.1483 19.0338C27.1483 19.9635 26.7468 20.8636 26.1386 21.5014C27.819 21.4288 29.4293 20.8074 30.7228 19.7323C30.9383 19.5238 31.0756 19.3466 31.133 19.2388C31.1557 19.201 31.1677 19.1578 31.1677 19.1137C31.1694 18.6966 28.9295 15.4922 24.2948 14.5781ZM23.6745 17.0579C23.4164 17.0579 23.1608 17.1088 22.9223 17.2075C22.6839 17.3063 22.4672 17.4511 22.2847 17.6336C22.1022 17.8161 21.9574 18.0327 21.8587 18.2712C21.7599 18.5097 21.7091 18.7652 21.7091 19.0233C21.7091 19.2814 21.7599 19.537 21.8587 19.7755C21.9574 20.0139 22.1022 20.2306 22.2847 20.4131C22.4672 20.5956 22.6839 20.7404 22.9223 20.8391C23.1608 20.9379 23.4164 20.9887 23.6745 20.9887C24.1957 20.9887 24.6956 20.7817 25.0642 20.4131C25.4328 20.0445 25.6399 19.5446 25.6399 19.0233C25.6399 18.5021 25.4328 18.0022 25.0642 17.6336C24.6956 17.265 24.1957 17.0579 23.6745 17.0579Z" fill="#0B0C0D"/>
</svg>
