<svg width="49" height="48" viewBox="0 0 49 48" fill="none" xmlns="http://www.w3.org/2000/svg">
<g clip-path="url(#clip0_11570_10698)">
<path d="M20.6782 6.30469C18.9679 6.68945 17.2693 7.22084 15.674 8.02203C15.7104 9.42734 15.8019 10.7717 15.986 12.1336C15.369 12.5312 14.7215 12.8726 14.1467 13.3371C13.5602 13.7829 12.9619 14.2169 12.4294 14.7424C11.3666 14.0456 10.2487 13.3864 9.08734 12.8057C7.84039 14.1442 6.68025 15.5917 5.72656 17.2105C6.44095 18.3718 7.19287 19.4522 7.99993 20.4857H8.0187V30.426C8.03746 30.426 8.05506 30.4261 8.07383 30.4319L14.1713 31.0184C14.4892 31.0489 14.7391 31.3058 14.7579 31.6296L14.9467 34.3182L20.2618 34.6971L20.629 32.2161C20.6782 31.8924 20.9527 31.6542 21.2765 31.6542H27.7095C28.0332 31.6542 28.3077 31.8924 28.357 32.2161L28.7241 34.6971L34.0392 34.3182L34.2281 31.6296C34.2469 31.3058 34.4967 31.0489 34.8205 31.0184L40.9121 30.4319C40.9309 30.4319 40.9485 30.426 40.9672 30.426V20.4857H40.9919C41.7989 19.4592 42.5438 18.3718 43.2582 17.2105C42.3115 15.5917 41.1444 14.143 39.8974 12.8057C38.7431 13.3864 37.6182 14.0456 36.5554 14.7424C36.024 14.2169 35.4316 13.7829 34.8451 13.3371C34.2644 12.8726 33.6169 12.53 32.9999 12.1336C33.1829 10.7717 33.2744 9.42734 33.3119 8.02203C31.7236 7.22201 30.0251 6.69062 28.3077 6.30469C27.6238 7.45897 26.9998 8.70591 26.4566 9.92119C25.8091 9.81679 25.1557 9.77456 24.5082 9.76869H24.4777C23.8302 9.77456 23.1768 9.81796 22.5293 9.92119C21.985 8.70591 21.3621 7.45897 20.6724 6.30469H20.6782ZM15.857 20.8575C17.8852 20.8575 19.5286 22.5068 19.5286 24.535C19.5286 26.5632 17.8852 28.2066 15.857 28.2066C13.8288 28.2066 12.1854 26.5632 12.1854 24.535C12.1854 22.5068 13.8288 20.8575 15.857 20.8575ZM33.136 20.8575C35.1642 20.8575 36.8076 22.5068 36.8076 24.535C36.8076 26.5632 35.1642 28.2066 33.136 28.2066C31.1078 28.2066 29.4643 26.5632 29.4643 24.535C29.4643 22.5068 31.1078 20.8575 33.136 20.8575ZM16.2054 22.3179C14.8611 22.3179 13.7678 23.4054 13.7678 24.7555C13.7678 26.0999 14.8611 27.1873 16.2054 27.1873C17.5556 27.1873 18.6488 26.0999 18.6488 24.7555C18.6488 23.4054 17.5556 22.3179 16.2054 22.3179ZM32.7817 22.3179C31.4374 22.3179 30.3441 23.4054 30.3441 24.7555C30.3441 26.0999 31.4374 27.1873 32.7817 27.1873C34.1319 27.1873 35.2193 26.0999 35.2193 24.7555C35.2193 23.4054 34.1319 22.3179 32.7817 22.3179ZM24.4965 23.0265C25.1499 23.0265 25.6813 23.5027 25.6813 24.0951V27.4794C25.6813 28.0717 25.1499 28.555 24.4965 28.555C23.8431 28.555 23.3117 28.0729 23.3117 27.4794V24.0951C23.3117 23.5027 23.8431 23.0265 24.4965 23.0265ZM8.01283 31.7387C8.01283 32.3311 8.0187 32.9727 8.0187 33.1006C8.0187 38.8931 15.362 41.6721 24.4836 41.7025H24.5082C33.6298 41.6721 40.9672 38.8919 40.9672 33.1006C40.9672 32.9727 40.9731 32.3311 40.979 31.7387L35.4985 32.2701L35.3096 34.9763C35.285 35.3001 35.0281 35.5628 34.7043 35.5816L28.1611 36.0461C27.8432 36.0461 27.5628 35.8139 27.5136 35.4901L27.1405 32.961H21.8431L21.47 35.4901C21.4208 35.8256 21.1216 36.0708 20.7732 36.0461L14.2851 35.5816C13.9614 35.557 13.6986 35.3001 13.674 34.9763L13.491 32.2701L8.01048 31.7446L8.01283 31.7387Z" fill="#0B0C0D"/>
</g>
<defs>
<clipPath id="clip0_11570_10698">
<rect width="37.5375" height="37.5375" fill="white" transform="translate(5.73438 5.22656)"/>
</clipPath>
</defs>
</svg>
