<svg width="48" height="48" viewBox="0 0 48 48" fill="none" xmlns="http://www.w3.org/2000/svg">
<path d="M41.4998 38.8203V9.18095C41.4998 7.96495 40.6899 6.93873 39.5806 6.6106L38.3207 7.36448L24.339 22.2721L23.9006 23.6422L23.6445 24.9574L28.0046 41.2518L28.679 41.5007H38.8192C40.2996 41.5007 41.4998 40.3007 41.4998 38.8203Z" fill="#0B0C0D"/>
<path d="M6.5 9.18006V38.8193C6.5 39.7361 6.96034 40.5448 7.66213 41.0281L8.52169 40.6165L23.3211 24.7714L23.9014 23.6414L23.9232 22.549L19.8954 7.22495L19.2852 6.49951H9.18055C7.70013 6.49951 6.5 7.69965 6.5 9.18006Z" fill="#0B0C0D"/>
<path d="M23.903 23.6417L39.583 6.60985C39.3358 6.53661 39.0793 6.49945 38.8215 6.49951H19.2871L23.903 23.6417Z" fill="#0B0C0D"/>
<path d="M9.17872 41.498H28.6781L23.8996 23.6394L7.66016 41.0262C8.10661 41.3342 8.63634 41.4988 9.17872 41.498Z" fill="#0B0C0D"/>
<path d="M19.477 19.7664H21.4219C22.1968 22.6903 23.0788 25.256 24.0628 27.5711C25.1773 24.9665 25.9943 22.399 26.6858 19.7662H28.5236C27.7005 23.0374 26.3541 26.3343 24.8141 29.7373H23.1884C21.7091 26.5126 20.4499 23.1971 19.477 19.7664ZM13.0621 14.7002H17.3866V33.2446H13.043V31.8151H15.7052V16.0916H13.0621V14.7002ZM34.9605 16.0916H32.3175V31.8151H34.9794V33.2446H30.6359V14.7002H34.9604L34.9605 16.0916Z" fill="white"/>
</svg>
