<svg width="48" height="48" viewBox="0 0 48 48" fill="none" xmlns="http://www.w3.org/2000/svg">
<path fill-rule="evenodd" clip-rule="evenodd" d="M41.3644 15.6846V31.5655C41.3644 32.8087 40.7027 33.9717 39.5999 34.5933L25.8444 42.5338C24.7616 43.1554 23.4182 43.1554 22.3354 42.5338L8.57994 34.5933C7.49715 33.9717 6.83545 32.8087 6.83545 31.5655V15.6846C6.83545 14.4414 7.49715 13.2784 8.57994 12.6568L22.3554 4.71632C23.4382 4.09472 24.7817 4.09472 25.8645 4.71632L39.6199 12.6568C40.7027 13.2784 41.3644 14.4414 41.3644 15.6846ZM20.992 18.8127C20.992 18.9409 20.9698 19.0638 20.9289 19.1779L28.8609 24.8135C29.0434 24.6392 29.2757 24.5166 29.5343 24.4691V19.2426C29.0619 19.1261 28.7116 18.6996 28.7116 18.1912C28.7116 17.5932 29.1964 17.1084 29.7944 17.1084C30.0166 17.1084 30.2231 17.1753 30.395 17.2901L31.6624 16.0231C31.5712 15.8644 31.519 15.6804 31.519 15.4842C31.519 14.8861 32.0038 14.4014 32.6018 14.4014C33.1998 14.4014 33.6846 14.8861 33.6846 15.4842C33.6846 15.7767 33.5685 16.0421 33.38 16.237L35.0271 18.3577C35.253 18.1781 35.539 18.0708 35.85 18.0708C36.5809 18.0708 37.1734 18.6633 37.1734 19.3942C37.1734 20.1251 36.5809 20.7176 35.85 20.7176C35.1191 20.7176 34.5266 20.1251 34.5266 19.3942C34.5266 19.2793 34.5413 19.1679 34.5688 19.0616L30.8359 18.4883C30.7248 18.8789 30.3997 19.1795 29.9954 19.2554V24.4657C30.6213 24.5707 31.0982 25.115 31.0982 25.7707C31.0982 26.4265 30.6213 26.9708 29.9954 27.0758V31.6244C30.4974 31.7186 30.8772 32.1592 30.8772 32.6885C30.8772 33.2866 30.3924 33.7713 29.7944 33.7713C29.1964 33.7713 28.7116 33.2866 28.7116 32.6885C28.7116 32.1802 29.0619 31.7537 29.5343 31.6372V27.0724C28.9182 26.9592 28.4514 26.4195 28.4514 25.7707C28.4514 25.5622 28.4996 25.3649 28.5856 25.1894L20.6804 19.5728C20.4841 19.772 20.2111 19.8955 19.9093 19.8955C19.7382 19.8955 19.5765 19.8559 19.4326 19.7852L17.9009 21.5933C18.1735 21.8357 18.3451 22.1891 18.3451 22.5825C18.3451 23.2382 17.8683 23.7825 17.2424 23.8876V31.9893C17.7345 32.0912 18.1044 32.5272 18.1044 33.0495C18.1044 33.6475 17.6196 34.1323 17.0216 34.1323C16.4236 34.1323 15.9388 33.6475 15.9388 33.0495C15.9388 32.5341 16.2989 32.1028 16.7812 31.9935V23.8841C16.1651 23.771 15.6983 23.2312 15.6983 22.5825C15.6983 21.8516 16.2908 21.2591 17.0217 21.2591C17.1848 21.2591 17.3409 21.2886 17.4852 21.3425L19.0619 19.487C18.9146 19.302 18.8265 19.0676 18.8265 18.8127C18.8265 18.6411 18.8664 18.4787 18.9375 18.3345L14.9589 15.5077C14.7223 15.7294 14.4041 15.8652 14.0543 15.8652C13.3234 15.8652 12.7309 15.2726 12.7309 14.5417C12.7309 13.8108 13.3234 13.2183 14.0543 13.2183C14.7852 13.2183 15.3777 13.8108 15.3777 14.5417C15.3777 14.7548 15.3273 14.9562 15.2378 15.1345L19.2291 17.9702C19.415 17.8199 19.6516 17.7299 19.9093 17.7299C20.5073 17.7299 20.992 18.2147 20.992 18.8127ZM34.6111 18.5934L32.9835 16.4977C32.8648 16.5425 32.7361 16.5669 32.6018 16.5669C32.3671 16.5669 32.1498 16.4923 31.9724 16.3654L30.7155 17.6218C30.7866 17.7364 30.8368 17.8653 30.8609 18.0032L34.6111 18.5934ZM36.0109 32.0469C36.3985 32.0469 36.7127 31.7326 36.7127 31.345C36.7127 30.9574 36.3985 30.6432 36.0109 30.6432C35.6233 30.6432 35.3091 30.9574 35.3091 31.345C35.3091 31.7326 35.6233 32.0469 36.0109 32.0469ZM24.7817 36.1774C24.7817 36.565 24.4675 36.8792 24.0799 36.8792C23.6923 36.8792 23.3781 36.565 23.3781 36.1774C23.3781 35.7898 23.6923 35.4756 24.0799 35.4756C24.4675 35.4756 24.7817 35.7898 24.7817 36.1774ZM28.4107 12.4764C28.7983 12.4764 29.1125 12.1622 29.1125 11.7746C29.1125 11.387 28.7983 11.0728 28.4107 11.0728C28.0231 11.0728 27.7089 11.387 27.7089 11.7746C27.7089 12.1622 28.0231 12.4764 28.4107 12.4764ZM20.2901 11.7746C20.2901 12.1622 19.9758 12.4764 19.5883 12.4764C19.2007 12.4764 18.8864 12.1622 18.8864 11.7746C18.8864 11.387 19.2007 11.0728 19.5883 11.0728C19.9758 11.0728 20.2901 11.387 20.2901 11.7746ZM36.0105 26.4925C36.6085 26.4925 37.0933 26.0078 37.0933 25.4098C37.0933 24.8118 36.6085 24.327 36.0105 24.327C35.4125 24.327 34.9277 24.8118 34.9277 25.4098C34.9277 26.0078 35.4125 26.4925 36.0105 26.4925ZM24.0797 30.8036C24.8106 30.8036 25.4031 30.2111 25.4031 29.4802C25.4031 28.7493 24.8106 28.1568 24.0797 28.1568C23.3488 28.1568 22.7563 28.7493 22.7563 29.4802C22.7563 30.2111 23.3488 30.8036 24.0797 30.8036ZM25.4031 16.226C25.4031 16.9569 24.8106 17.5495 24.0797 17.5495C23.3488 17.5495 22.7563 16.9569 22.7563 16.226C22.7563 15.4951 23.3488 14.9026 24.0797 14.9026C24.8106 14.9026 25.4031 15.4951 25.4031 16.226ZM11.9888 21.1187C12.3764 21.1187 12.6906 20.8045 12.6906 20.4169C12.6906 20.0293 12.3764 19.7151 11.9888 19.7151C11.6012 19.7151 11.287 20.0293 11.287 20.4169C11.287 20.8045 11.6012 21.1187 11.9888 21.1187ZM13.0718 26.3522C13.0718 26.9502 12.587 27.435 11.989 27.435C11.391 27.435 10.9062 26.9502 10.9062 26.3522C10.9062 25.7542 11.391 25.2694 11.989 25.2694C12.587 25.2694 13.0718 25.7542 13.0718 26.3522Z" fill="#0B0C0D"/>
</svg>
