<svg width="48" height="48" viewBox="0 0 48 48" fill="none" xmlns="http://www.w3.org/2000/svg">
<path fill-rule="evenodd" clip-rule="evenodd" d="M16.4127 31.0096C16.5017 31.1086 16.6006 31.2075 16.6946 31.3015L16.9914 31.5883L11.6791 38.0184C11.3774 37.7513 11.0806 37.4743 10.7938 37.1875C10.5069 36.9006 10.2299 36.6236 9.96774 36.3219L16.3978 31.0096H16.4127ZM18.6335 32.8595L14.6765 40.2145C13.9765 39.811 13.304 39.3616 12.6634 38.8692L17.9509 32.3649C18.1735 32.5281 18.401 32.6765 18.6335 32.8199V32.8595ZM15.1712 29.3972C15.3096 29.6247 15.463 29.8522 15.6262 30.0748L9.15162 35.3326C8.65977 34.6933 8.21035 34.0225 7.80625 33.3245L15.1662 29.3675L15.1712 29.3972ZM20.4933 33.7647L18.0449 41.7231C17.2824 41.4626 16.5373 41.1536 15.8142 40.7982L19.7316 33.4234C19.9822 33.5388 20.2344 33.6427 20.4883 33.735L20.4933 33.7647ZM14.266 27.5077C14.3583 27.7649 14.4622 28.0172 14.5776 28.2645L7.20281 32.1868C6.84439 31.4633 6.53537 30.7164 6.27787 29.9511L14.266 27.5077ZM22.4866 34.2543L21.6507 42.564C20.8497 42.4488 20.0568 42.2837 19.2765 42.0694L21.6853 34.0961C21.9475 34.1604 22.2146 34.2098 22.4866 34.2543ZM13.7466 25.5144C13.7862 25.7815 13.8406 26.0486 13.9049 26.3157L5.90691 28.7195C5.69906 27.9408 5.5421 27.1494 5.43702 26.3503L13.7466 25.5144ZM13.623 23.4617C13.623 23.7338 13.623 24.0108 13.623 24.2828L5.31336 25.089C5.26143 24.2836 5.26143 23.4757 5.31336 22.6703L13.623 23.4617ZM24.5442 34.3731L25.3455 42.6876C24.54 42.7371 23.7323 42.7371 22.9268 42.6876L23.7281 34.3731C23.9999 34.3879 24.2724 34.3879 24.5442 34.3731ZM26.587 34.0961L28.9958 42.0941C28.2155 42.3084 27.4226 42.4736 26.6216 42.5887L25.7857 34.2791C26.0528 34.2346 26.3249 34.1851 26.587 34.1208V34.0961ZM13.9049 21.409C13.8406 21.6761 13.7862 21.9432 13.7466 22.2153L5.43702 21.3744C5.54231 20.577 5.69927 19.7872 5.90691 19.0101L13.9049 21.414V21.409ZM28.5408 33.4234L32.4582 40.7982C31.7328 41.1524 30.9861 41.4613 30.2225 41.7231L27.784 33.735C28.0346 33.6427 28.2868 33.5388 28.5408 33.4234ZM14.5924 19.4256C14.4787 19.6729 14.3699 19.9202 14.2759 20.1824L6.29766 17.7093C6.56067 16.9447 6.87294 16.1979 7.23249 15.4736L14.5924 19.4306V19.4256ZM30.3164 32.3649L35.6039 38.8494C34.961 39.3385 34.2887 39.7878 33.5908 40.1947L29.6388 32.8595C29.8713 32.7161 30.0939 32.5677 30.3164 32.4045V32.3649ZM15.6262 17.6747C15.463 17.8972 15.3096 18.1198 15.1712 18.3523L7.81614 14.3953C8.22258 13.6987 8.6719 13.028 9.16151 12.3872L15.6262 17.6747ZM38.3046 36.3219C38.0375 36.6236 37.7654 36.9154 37.4786 37.2023C37.1917 37.4892 36.8949 37.7662 36.5932 38.0333L31.281 31.5883L31.5777 31.3015L31.8597 31.0096L38.3046 36.3219ZM11.6791 9.69643L16.9914 16.1265L16.6946 16.4134C16.6006 16.5074 16.5017 16.6063 16.4127 16.7052L9.98258 11.393C10.2447 11.0962 10.5217 10.7994 10.8086 10.5125C11.0955 10.2257 11.3923 9.94868 11.694 9.68653L11.6791 9.69643ZM40.4661 33.3195C40.0622 34.0193 39.6127 34.6918 39.1207 35.3326L32.6511 30.0451C32.8143 29.8225 32.9676 29.595 33.1061 29.3675L40.4661 33.3245V33.3195ZM14.6815 7.53493L18.6384 14.8899C18.406 15.0334 18.1784 15.1867 17.9559 15.345L12.6684 8.8803C13.309 8.3879 13.9815 7.93846 14.6815 7.53493ZM41.9944 29.9511C41.7369 30.7164 41.4279 31.4633 41.0695 32.1868L33.6947 28.2645C33.8068 28.0172 33.9107 27.7649 34.0063 27.5077L41.9944 29.9511ZM18.0647 5.99666L20.4982 13.9897C20.241 14.0821 19.9888 14.1859 19.7414 14.3013L15.829 6.9216C16.5544 6.56735 17.301 6.25844 18.0647 5.99666ZM42.8353 26.3503C42.7221 27.15 42.5569 27.9414 42.3407 28.7195L34.3674 26.3157C34.4317 26.0486 34.4861 25.7815 34.5257 25.5144L42.8353 26.3503ZM21.6507 5.16075L22.4866 13.4704C22.2146 13.5149 21.9475 13.5693 21.6853 13.6287L19.2765 5.65537C20.0568 5.44104 20.8497 5.27585 21.6507 5.16075ZM42.959 22.6555C43.0134 23.4592 43.0134 24.2656 42.959 25.0692L34.6493 24.2729C34.6493 24.0009 34.6493 23.7288 34.6493 23.4518L42.959 22.6555ZM25.3455 5.0371L24.5442 13.3517C24.2705 13.3517 23.9985 13.3517 23.7281 13.3517L22.9268 5.0371C23.7323 4.98763 24.54 4.98763 25.3455 5.0371ZM42.3654 19.0101C42.5816 19.7883 42.7468 20.5797 42.86 21.3794L34.5504 22.2202C34.5108 21.9482 34.4564 21.6811 34.3921 21.414L42.3654 19.0101ZM29.0106 5.65537L26.587 13.6287C26.3249 13.5693 26.0528 13.5149 25.7857 13.4704L26.6216 5.16075C27.4219 5.26609 28.2149 5.42137 28.9958 5.6257L29.0106 5.65537ZM32.473 6.95128L28.5408 14.3063C28.2885 14.1876 28.0461 14.0837 27.784 13.9897L30.2225 6.00161C30.9861 6.26339 31.7328 6.5723 32.4582 6.92655L32.473 6.95128ZM41.0646 15.5478C41.4209 16.2722 41.7299 17.019 41.9895 17.7835L34.0063 20.2566C33.9123 20.0043 33.8035 19.762 33.6898 19.4998L41.0646 15.5478ZM35.5891 8.87041L30.2917 15.34C30.0691 15.1818 29.8416 15.0284 29.6091 14.885L33.5661 7.52504C34.2661 7.92857 34.9386 8.37801 35.5792 8.87041H35.5891ZM39.1009 12.3723C39.5916 13.0107 40.041 13.6798 40.4463 14.3755L33.0962 18.3325C32.9528 18.1 32.8044 17.8725 32.6412 17.6499L39.1009 12.3575V12.3723ZM36.5932 9.69643C36.8949 9.95857 37.1867 10.2356 37.4786 10.5224C37.7704 10.8093 38.0375 11.0962 38.3046 11.4029L31.8745 16.72C31.7822 16.6145 31.6882 16.5156 31.5926 16.4233L31.2958 16.1364L36.608 9.70632L36.5932 9.69643Z" fill="#0B0C0D"/>
</svg>
