<svg width="64" height="64" viewBox="0 0 64 64" fill="none" xmlns="http://www.w3.org/2000/svg">
<path fill-rule="evenodd" clip-rule="evenodd" d="M56 32C56 36.9705 45.2547 41 31.9999 41C18.7452 41 8 36.9705 8 32C8 27.0294 18.7452 23 31.9999 23C45.2547 23 56 27.0294 56 32ZM17.1452 27.7931L14.4865 37.2105H17.638L18.3026 34.7697H21.3165C24.1413 34.8821 27.2928 33.2765 27.2928 30.4665C27.2928 28.8407 25.9348 27.9094 23.2818 27.7931H17.1452ZM19.7981 29.5392L18.9673 33.0235H20.9613C22.4511 32.9073 23.7804 32.5619 23.9466 30.5829C23.9466 29.8885 23.0985 29.5392 21.9525 29.5392H19.7981ZM29.304 25.3685L26.6453 34.802H29.7967L31.2923 29.5713H33.7621C34.9248 29.5713 34.9253 29.9206 34.7587 30.4986L33.613 34.802H36.936L38.0935 30.0169C38.4262 28.8568 37.4291 27.9255 34.7762 27.8091H31.7908L32.4555 25.3685H29.304ZM39.3772 27.7931L36.7243 37.2105H39.8755L40.5403 34.7697H43.5429C46.3619 34.8821 49.5135 33.2765 49.5135 30.4665C49.5135 28.8407 48.161 27.9094 45.5025 27.7931H39.3772ZM42.0301 29.5392L41.199 33.0235H43.1932C44.6829 32.9073 46.0122 32.5619 46.1788 30.5829C46.1788 29.8885 45.3363 29.5392 44.1903 29.5392H42.0301Z" fill="#0B0C0D"/>
</svg>
