<svg width="49" height="48" viewBox="0 0 49 48" fill="none" xmlns="http://www.w3.org/2000/svg">
<mask id="mask0_11570_10688" style="mask-type:luminance" maskUnits="userSpaceOnUse" x="8" y="7" width="33" height="34">
<path d="M40.7188 7.41406H8.28125V40.5882H40.7188V7.41406Z" fill="white"/>
</mask>
<g mask="url(#mask0_11570_10688)">
<path d="M29.4367 24.0024L35.2548 13.9739L38.0695 24.0024L35.2548 34.0334L29.4367 24.0024ZM26.5936 25.6359L32.4117 35.6643L22.2694 33.0797L14.9497 25.641L26.5936 25.6359ZM32.4117 12.343L26.5936 22.3714H14.9626L22.2875 14.9405L32.4117 12.343ZM40.7136 20.588L37.1648 7.40625L23.9236 10.9447L21.9593 14.3848L17.9789 14.359L8.28125 24.0024L17.9789 33.6535L21.9593 33.6276L23.9236 37.0678L37.17 40.5959L40.7188 27.4141L38.7027 24.0024L40.7136 20.588Z" fill="#0B0C0D"/>
</g>
</svg>
