<svg width="49" height="48" viewBox="0 0 49 48" fill="none" xmlns="http://www.w3.org/2000/svg">
<g clip-path="url(#clip0_11570_10694)">
<path d="M24.496 6.80361C33.9887 6.80361 41.6962 14.5282 41.6962 24.0038C41.6962 33.4793 33.9715 41.204 24.496 41.204C15.0204 41.204 7.29579 33.4965 7.29579 24.0038C7.29579 14.5111 15.0204 6.80361 24.496 6.80361ZM24.496 5.94531C14.5226 5.94531 6.4375 14.0304 6.4375 24.0038C6.4375 33.9771 14.5226 42.0623 24.496 42.0623C34.4693 42.0623 42.5544 33.9771 42.5544 24.0038C42.5544 14.0304 34.4865 5.94531 24.496 5.94531Z" fill="#0B0C0D"/>
<path d="M23.2429 13.1875C23.2429 13.1875 19.1746 14.3376 15.5182 18.2171C11.8619 22.0966 11.3984 24.8603 11.3984 26.9202C12.2052 25.5469 17.1833 17.9768 18.3506 21.5816V30.1989C18.3506 30.1989 18.2819 31.3661 16.4967 30.9027C17.0288 31.8983 19.7754 34.353 24.7363 34.8508C25.8692 33.7179 27.3455 32.0871 27.3455 32.0871L29.8174 34.1813C29.8174 34.1813 34.2634 31.2975 36.0143 27.109C34.3835 28.1733 32.4094 30.6452 31.3795 28.9114V18.4231C31.3795 18.4231 34.023 14.4578 34.435 14.2689C33.3879 14.4578 29.6972 15.6765 27.7575 18.1828C27.2082 17.582 25.6804 17.5648 25.6804 17.5648C25.6804 17.5648 26.882 18.5604 26.8992 19.4702C26.9164 20.38 26.8992 27.9673 26.8992 28.8428C26.0752 29.6839 25.1998 30.1302 24.6333 30.1302C23.3115 30.1302 22.9339 29.6667 22.5734 29.2032V18.1828C22.5734 18.1828 21.9211 18.7321 21.4061 17.8394C20.8912 16.9468 20.874 15.2131 23.2429 13.1875Z" fill="#0B0C0D"/>
</g>
<defs>
<clipPath id="clip0_11570_10694">
<rect width="36.1169" height="36.1169" fill="white" transform="translate(6.4375 5.94531)"/>
</clipPath>
</defs>
</svg>
